# xmcd
#
# Track frame offsets:
#	150
#	19560
#	33332
#	48954
#	70062
#	88502
#	104807
#	127244
#	147197
#	165256
#	183705
#	201415
#	222904
#	242650
#	259204
#	276831
#	295098
#
# Disc length: 4200 seconds
#
# Revision: 1
# Processed by: cddbd v1.5.2PL0 Copyright (c) Steve Scherf et al.
# Submitted via: audiograbber 1.83.01
#
DISCID=02106611
DTITLE=Various Artist - Rollingstone - Old School Hip Hop
DYEAR=2012
DGENRE=Hip Hop
TTITLE0=Sugarhill Gang - Rapper's Delight
TTITLE1=Run D.M.C. - It's Tricky
TTITLE2=Salt-N-Pepa - Push It
TTITLE3=Digital Underground - The Humpty Dance
TTITLE4=Coolio - Fantastic Voyage
TTITLE5=House Of Pain - Jump Around
TTITLE6=Rob Base And DJ E-Z Rock - It Takes Two
TTITLE7=The Fat Boys - The Fat Boys Are Back
TTITLE8=MC Lyte - Ruffneck
TTITLE9=Kurtis Blow - The Breaks (Part 1)
TTITLE10=L'Trimm - Cars With The Boom
TTITLE11=Grandmaster Flash and The Furious Five - The Message
TTITLE12=Digable Planets - Rebirth Of Slick (Cool Like Dat)
TTITLE13=De La Soul - Me, Myself And I
TTITLE14=Queen Latifah - Ladies First
TTITLE15=Kid 'N Play - Rollin' With Kid 'N Play
TTITLE16=Naughty By Nature - Hip Hop Hooray
EXTD=
EXTT0=
EXTT1=
EXTT2=
EXTT3=
EXTT4=
EXTT5=
EXTT6=
EXTT7=
EXTT8=
EXTT9=
EXTT10=
EXTT11=
EXTT12=
EXTT13=
EXTT14=
EXTT15=
EXTT16=
PLAYORDER=
